<svg width="50" height="51" viewBox="0 0 50 51" fill="none" xmlns="http://www.w3.org/2000/svg">
<path d="M50 39.2421C48.1812 39.7046 47.0562 39.2624 46.0469 37.7468L38.8687 27.8156L37.8312 26.4406L29.4484 37.7796C28.4906 39.1437 27.4859 39.7374 25.6984 39.2546L36.4328 24.8452L26.4391 11.8296C28.1578 11.4952 29.3453 11.6656 30.4 13.2046L37.8453 23.2593L45.3453 13.2593C46.3062 11.8952 47.3391 11.3765 49.0641 11.8796L45.1891 17.0171L39.9391 23.8531C39.3141 24.6343 39.4 25.1687 39.975 25.9234L50 39.2421ZM0.0125 24.6046L0.890625 20.2859C3.28125 11.739 13.0781 8.18743 19.8344 13.4687C23.7828 16.5749 24.7641 20.9687 24.5687 25.8906H2.3125C1.97813 34.7499 8.35469 40.0968 16.4844 37.3687C19.3359 36.4109 21.0156 34.1781 21.8562 31.3843C22.2828 29.9843 22.9891 29.7656 24.3047 30.1656C23.6328 33.6593 22.1172 36.5781 18.9141 38.4046C14.1281 41.139 7.29687 40.2546 3.70312 36.4546C1.5625 34.2499 0.678125 31.4562 0.28125 28.4687C0.21875 27.9749 0.09375 27.5046 0 27.0312C0.00833333 26.2228 0.0125 25.4145 0.0125 24.6062V24.6046ZM2.35313 24.0109H22.4656C22.3344 17.6046 18.3453 13.0546 12.8937 13.0156C6.90937 12.9687 2.6125 17.4109 2.35313 24.0109V24.0109Z" fill="white"/>
</svg>
