<svg width="50" height="51" viewBox="0 0 50 51" fill="none" xmlns="http://www.w3.org/2000/svg">
<path d="M25 4.5C25.5664 4.5 26.0977 4.71875 26.4961 5.12109L45.3789 24.0039C46.207 24.8281 46.207 26.1719 45.3789 26.9961L26.4961 45.8789C26.0977 46.2813 25.5664 46.5 25 46.5C24.4336 46.5 23.9023 46.2813 23.5039 45.8789L4.62109 26.9961C3.79297 26.1719 3.79297 24.8281 4.62109 24.0039L16.9414 11.6836L19.2148 13.957C18.668 15.9883 19.2187 18.2031 20.7578 19.7422C21.125 20.1094 21.543 20.4258 22 20.6875V30.3164C20.1797 31.3672 19 33.3242 19 35.5C19 38.8086 21.6914 41.5 25 41.5C28.3086 41.5 31 38.8086 31 35.5C31 33.3242 29.8203 31.3672 28 30.3164V22.7422L29.2148 23.957C28.668 25.9883 29.2187 28.2031 30.7578 29.7422C31.8906 30.875 33.3984 31.5 35 31.5C36.6016 31.5 38.1094 30.875 39.2422 29.7422C41.582 27.4023 41.582 23.5977 39.2422 21.2578C38.1133 20.1289 36.6172 19.5078 35.0195 19.5078C34.4922 19.5078 33.9648 19.5781 33.457 19.7148L30.7852 17.043C31.332 15.0117 30.7812 12.7969 29.2422 11.2578C28.1133 10.1289 26.6172 9.50781 25.0195 9.50781C24.4922 9.50781 23.9648 9.57812 23.457 9.71484L21.1836 7.44141L23.5039 5.12109C23.9023 4.71875 24.4336 4.5 25 4.5ZM25 2.5C23.9453 2.5 22.8906 2.90234 22.0898 3.70703L18.3555 7.44141L22.9766 12.0625C23.6055 11.6953 24.3125 11.5078 25.0195 11.5078C26.0352 11.5078 27.0508 11.8945 27.8281 12.6719C29.1445 13.9883 29.3359 15.9883 28.4336 17.5195L32.9766 22.0625C33.6055 21.6953 34.3125 21.5078 35.0195 21.5078C36.0352 21.5078 37.0508 21.8945 37.8281 22.6719C39.3906 24.2344 39.3906 26.7656 37.8281 28.3281C37.0469 29.1094 36.0234 29.5 35 29.5C33.9766 29.5 32.9531 29.1094 32.1719 28.3281C30.8555 27.0117 30.6641 25.0117 31.5664 23.4766L27.0234 18.9336C26.6992 19.125 26.3555 19.2656 26 19.3555V31.6406C27.7227 32.0859 29 33.6367 29 35.5C29 37.7109 27.2109 39.5 25 39.5C22.793 39.5 21 37.7109 21 35.5C21 33.6367 22.2773 32.0859 24 31.6406V19.3555C23.332 19.1836 22.6953 18.8516 22.1719 18.3281C20.8555 17.0117 20.6641 15.0117 21.5664 13.4805L16.9414 8.85547L3.20703 22.5898C1.59766 24.1953 1.59766 26.8047 3.20703 28.4102L22.0898 47.293C22.8906 48.0977 23.9453 48.5 25 48.5C26.0547 48.5 27.1094 48.0977 27.9102 47.293L46.793 28.4102C48.4023 26.8047 48.4023 24.1953 46.793 22.5898L27.9102 3.70703C27.1094 2.90234 26.0547 2.5 25 2.5Z" fill="white"/>
</svg>
