<svg width="50" height="50" viewBox="0 0 50 50" fill="none" xmlns="http://www.w3.org/2000/svg">
<path d="M25 7.29175C30.1042 7.29175 34.8958 8.33341 38.0208 9.16675C39.2708 9.47925 40.1042 10.5209 40.3125 11.8751C40.5208 13.8542 40.625 15.9376 40.625 18.0209C40.625 34.2709 28.6458 40.8334 25 42.3959C21.3542 40.7292 9.375 34.1667 9.375 18.0209C9.375 15.9376 9.47917 13.8542 9.6875 11.8751C9.79167 10.5209 10.7292 9.47925 11.9792 9.16675C15.1042 8.33341 19.8958 7.29175 25 7.29175ZM25 4.16675C19.5833 4.16675 14.4792 5.20841 11.1458 6.14591C8.75 6.77091 6.875 8.95841 6.66667 11.4584C6.45833 13.2292 6.25 15.5209 6.25 18.0209C6.25 39.3751 25 45.8334 25 45.8334C25 45.8334 43.75 39.3751 43.75 18.0209C43.75 15.4167 43.5417 13.2292 43.3333 11.4584C43.0208 8.85425 41.25 6.77091 38.75 6.14591C35.5208 5.20841 30.4167 4.16675 25 4.16675Z" fill="white"/>
<path d="M23.9585 29.1667H26.0418V37.5001H23.9585V29.1667Z" fill="#F7F7F7"/>
<path d="M25 10.4167C25 10.4167 18.75 15.6251 18.75 23.9584C18.75 29.3751 22.1875 32.8126 23.9583 34.3751L25 31.2501L26.0417 34.3751C27.8125 32.8126 31.25 29.3751 31.25 23.9584C31.25 15.6251 25 10.4167 25 10.4167Z" fill="white"/>
<path d="M25 10.4167C25 10.4167 18.75 15.6251 18.75 23.9584C18.75 29.3751 22.1875 32.8126 23.9583 34.3751L25 31.2501V10.4167Z" fill="#EDEDED"/>
</svg>
