<svg width="50" height="51" viewBox="0 0 50 51" fill="none" xmlns="http://www.w3.org/2000/svg">
<path d="M24.9908 5.1875C24.4205 5.1875 23.8503 5.32739 23.3582 5.60864L7.87354 14.5472C6.87354 15.1254 6.25 16.22 6.25 17.3762V33.5933C6.25 34.7651 6.87354 35.8441 7.87354 36.4222L11.9385 38.766C13.9072 39.7347 14.6093 39.7334 15.4999 39.7334C18.4218 39.7334 20.0928 37.968 20.0928 34.9055V18.1727C20.0928 17.9227 19.8911 17.718 19.6411 17.718H17.688C17.4224 17.718 17.2333 17.9227 17.2333 18.1727V34.8903C17.2333 36.2653 15.8131 37.6086 13.5162 36.468L9.26514 34.0144C9.10889 33.9363 9.01489 33.7651 9.01489 33.5933V17.3915C9.01489 17.204 9.10889 17.0458 9.26514 16.952L24.7498 8.01648C24.8904 7.92273 25.0787 7.92273 25.235 8.01648L40.7196 16.952C40.8759 17.0458 40.9698 17.2043 40.9698 17.3762V33.5933C40.9698 33.7651 40.8755 33.9363 40.7349 34.0144L25.235 42.9683C25.0944 43.0464 24.8904 43.0464 24.7498 42.9683L20.7642 40.6093C20.6548 40.5311 20.5012 40.5162 20.3918 40.5787C19.2825 41.2037 19.0793 41.2814 18.0481 41.6407C17.7981 41.7189 17.4072 41.8746 18.1885 42.3121L23.3582 45.3761C23.8582 45.6573 24.4222 45.8125 24.9847 45.8125C25.5629 45.8125 26.1235 45.6573 26.6235 45.3761L42.1265 36.4222C43.1265 35.8441 43.75 34.7651 43.75 33.5933V17.3915C43.75 16.2196 43.1265 15.1406 42.1265 14.5625L26.6235 5.60864C26.1313 5.32739 25.5612 5.1875 24.9908 5.1875ZM29.1565 17.6967C24.7346 17.6967 22.0947 19.5704 22.0947 22.6954C22.0947 26.0861 24.7173 27.0221 28.9673 27.444C34.0454 27.944 34.436 28.6962 34.436 29.6962C34.436 31.4149 33.0477 32.1498 29.7821 32.1498C25.6727 32.1498 24.7659 31.1171 24.469 29.0858C24.4377 28.8671 24.2513 28.7104 24.0326 28.7104H22.0154C21.7654 28.7104 21.579 28.9155 21.579 29.1499C21.579 31.7593 23.0009 34.8658 29.7821 34.8658C34.6884 34.8658 37.5 32.9308 37.5 29.5558C37.5 26.212 35.234 25.3197 30.484 24.6791C25.6559 24.0541 25.1709 23.7258 25.1709 22.6008C25.1709 21.6633 25.594 20.431 29.1565 20.431C32.3284 20.431 33.5153 21.1163 33.9996 23.257C34.0465 23.4601 34.2173 23.6171 34.436 23.6171H36.4532C36.5782 23.6171 36.686 23.5552 36.7798 23.4614C36.8579 23.3833 36.9053 23.2572 36.8896 23.1166C36.5771 19.4291 34.1252 17.6967 29.1565 17.6967Z" fill="white"/>
</svg>
