<svg width="48" height="43" viewBox="0 0 48 43" fill="none" xmlns="http://www.w3.org/2000/svg">
<path d="M33.5547 0.984398C32.775 0.958181 31.9589 1.09412 31.1406 1.3594C29.5041 1.88996 27.7892 2.92391 26.0293 4.35549C25.3396 4.91653 24.6436 5.55785 23.9453 6.2383C23.2624 5.57513 22.5807 4.94907 21.9062 4.40041C20.1478 2.96998 18.4375 1.93759 16.8047 1.40823C15.1719 0.878861 13.5472 0.862458 12.2129 1.63284C10.8786 2.40321 10.0806 3.81738 9.72266 5.49612C9.36469 7.17485 9.40217 9.17402 9.76172 11.4121C9.88661 12.1895 10.0667 13.0051 10.2695 13.836C9.5071 14.067 8.76668 14.31 8.08008 14.5781C6.00798 15.3875 4.29345 16.3557 3.04492 17.5078C1.7964 18.66 0.990234 20.0583 0.990234 21.5938C0.990234 23.1292 1.7964 24.5256 3.04492 25.6778C4.29345 26.8299 6.00798 27.8001 8.08008 28.6094C8.81425 28.8961 9.60912 29.1543 10.4297 29.3985C10.1345 30.5013 9.89539 31.5715 9.73242 32.586C9.37259 34.8259 9.33459 36.8253 9.69336 38.5078C10.0521 40.1904 10.8505 41.6126 12.1914 42.3867C13.5323 43.1609 15.1643 43.1419 16.8008 42.6114C18.4373 42.0808 20.1503 41.0488 21.9102 39.6172C22.5935 39.0613 23.2848 38.4272 23.9766 37.7539C24.6717 38.4309 25.3663 39.0686 26.0527 39.627C27.8112 41.0574 29.5234 42.0898 31.1562 42.6192C32.7891 43.1485 34.4118 43.1649 35.7461 42.3946C37.0804 41.6242 37.8784 40.21 38.2363 38.5313C38.5943 36.8525 38.5549 34.8534 38.1953 32.6153C38.0319 31.598 37.7926 30.5262 37.4961 29.4199C38.3438 29.1699 39.1637 28.9047 39.9199 28.6094C41.992 27.8001 43.7066 26.8299 44.9551 25.6778C46.2036 24.5256 47.0098 23.1292 47.0098 21.5938C47.0098 20.0583 46.2036 18.66 44.9551 17.5078C43.7066 16.3557 41.992 15.3875 39.9199 14.5781C39.2235 14.3061 38.4717 14.06 37.6973 13.8262C37.9018 12.9902 38.0833 12.1688 38.209 11.3867C38.5688 9.14683 38.6068 7.14546 38.248 5.46291C37.8893 3.78037 37.089 2.36015 35.748 1.58596C35.0776 1.19887 34.3344 1.01061 33.5547 0.984398ZM33.4629 3.01955C33.9522 3.03293 34.3695 3.14936 34.7266 3.35549C35.4406 3.76775 35.9684 4.57012 36.25 5.89065C36.5316 7.21118 36.5218 8.99535 36.1895 11.0645C36.0756 11.7729 35.9104 12.5237 35.7227 13.293C33.6777 12.8009 31.437 12.4354 29.0488 12.2207C27.8491 10.5585 26.616 9.0464 25.373 7.70315C26.0302 7.06168 26.6831 6.46175 27.3203 5.94338C28.946 4.62096 30.4851 3.72112 31.7695 3.30471C32.4117 3.09651 32.9736 3.00618 33.4629 3.01955ZM14.4863 3.02541C14.9784 3.01168 15.5415 3.10176 16.1855 3.31057C17.4737 3.72818 19.0155 4.62762 20.6426 5.95119C21.2669 6.45904 21.9055 7.04589 22.5488 7.6719C21.297 9.0258 20.0552 10.5537 18.8477 12.2305C16.468 12.4492 14.2353 12.818 12.1992 13.3125C12.0127 12.5469 11.8496 11.7991 11.7363 11.0938C11.4036 9.02285 11.3953 7.23647 11.6777 5.91213C11.9601 4.58779 12.4922 3.78133 13.2129 3.36526C13.5732 3.15722 13.9942 3.03915 14.4863 3.02541ZM23.9766 9.1426C24.7911 10.029 25.6061 10.9993 26.4141 12.043C25.62 12.0099 24.8163 11.9903 24 11.9903C23.1675 11.9903 22.3484 12.0105 21.5391 12.0449C22.3474 11.0003 23.1618 10.0298 23.9766 9.1426ZM24 14.0098C25.3599 14.0098 26.6853 14.0657 27.9746 14.1602C28.8617 15.4343 29.7286 16.7861 30.5547 18.2168C31.2805 19.474 31.9373 20.7292 32.5352 21.9688C31.931 23.2248 31.2632 24.497 30.5273 25.7715C29.8796 26.8934 29.2032 27.959 28.5156 28.9864C27.0593 29.1081 25.5503 29.1758 24 29.1758C22.4124 29.1758 20.8695 29.1041 19.3809 28.9766C18.7047 27.964 18.0397 26.9126 17.4023 25.8086C16.6682 24.537 16.0036 23.2691 15.4004 22.0156C16.0061 20.7551 16.6737 19.4782 17.4121 18.1992C18.2338 16.776 19.0982 15.4321 19.9805 14.1641C21.2836 14.0674 22.6244 14.0098 24 14.0098ZM30.5508 14.4102C32.1985 14.6158 33.7457 14.9016 35.1855 15.2442C34.7581 16.6453 34.2317 18.1088 33.5938 19.6192C33.1796 18.8207 32.7506 18.0196 32.2871 17.2168C31.7257 16.2445 31.142 15.316 30.5508 14.4102ZM17.3438 14.4258C16.7647 15.3151 16.1948 16.2246 15.6445 17.1778C15.1751 17.9908 14.7372 18.8028 14.3184 19.6114C13.686 18.1101 13.1627 16.6549 12.7383 15.2617C14.168 14.9184 15.7068 14.6338 17.3438 14.4258ZM37.1641 15.7754C37.8729 15.9899 38.5576 16.2137 39.1855 16.459C41.0957 17.2051 42.6066 18.0885 43.5859 18.9922C44.5652 19.8959 44.9902 20.7577 44.9902 21.5938C44.9902 22.4298 44.5652 23.2916 43.5859 24.1953C42.6066 25.099 41.0957 25.9825 39.1855 26.7285C38.4877 27.0011 37.721 27.2483 36.9238 27.4824C36.3552 25.7237 35.6294 23.8888 34.7656 22.0156C35.7588 19.8651 36.5611 17.7683 37.1641 15.7754ZM10.8027 15.7852C11.3988 17.7581 12.1909 19.8342 13.1699 21.9629C12.3005 23.847 11.5711 25.6923 11 27.461C10.231 27.2329 9.49021 26.9925 8.81445 26.7285C6.9043 25.9825 5.39335 25.099 4.41406 24.1953C3.43477 23.2916 3.00977 22.4298 3.00977 21.5938C3.00977 20.7577 3.43477 19.8959 4.41406 18.9922C5.39335 18.0885 6.9043 17.2051 8.81445 16.459C9.43277 16.2175 10.1059 15.9969 10.8027 15.7852ZM24 17C21.2504 17 19 19.2504 19 22C19 24.7496 21.2504 27 24 27C26.7496 27 29 24.7496 29 22C29 19.2504 26.7496 17 24 17ZM24 19C25.6687 19 27 20.3313 27 22C27 23.6687 25.6687 25 24 25C22.3313 25 21 23.6687 21 22C21 20.3313 22.3313 19 24 19ZM33.6191 24.3633C34.1436 25.6045 34.5995 26.8191 34.9824 27.9903C33.7798 28.2691 32.4993 28.5041 31.1523 28.6895C31.5401 28.0708 31.923 27.4406 32.2969 26.793C32.7656 25.9812 33.2008 25.1705 33.6191 24.3633ZM14.3418 24.3653C14.7623 25.1775 15.2003 25.9918 15.6719 26.8086C16.0411 27.4481 16.4181 28.0724 16.8008 28.6836C15.4578 28.4974 14.1812 28.2616 12.9824 27.9824C13.3637 26.8148 13.8197 25.6028 14.3418 24.3653ZM12.4062 29.9239C14.2161 30.3526 16.1777 30.6819 18.2578 30.8965C19.6467 32.9053 21.0927 34.7093 22.5488 36.2871C21.8978 36.9219 21.2526 37.5176 20.6211 38.0313C18.9954 39.3537 17.4543 40.2516 16.1699 40.668C14.8855 41.0844 13.9269 41.0295 13.2129 40.6172C12.4988 40.2049 11.973 39.4026 11.6914 38.0821C11.4098 36.7615 11.4176 34.9793 11.75 32.9102C11.9008 31.9715 12.1262 30.9664 12.4062 29.9239ZM35.5605 29.9317C35.8428 30.98 36.0691 31.9898 36.2207 32.9336C36.5534 35.0045 36.5617 36.789 36.2793 38.1133C35.9969 39.4376 35.4667 40.2461 34.7461 40.6621C34.0254 41.0782 33.0596 41.1344 31.7715 40.7168C30.4834 40.2992 28.9416 39.3978 27.3145 38.0742C26.6784 37.5569 26.0287 36.9583 25.373 36.3184C26.8387 34.7346 28.2955 32.9208 29.6934 30.9004C31.7787 30.6873 33.7458 30.3599 35.5605 29.9317ZM20.8672 31.1016C21.894 31.1575 22.9342 31.1953 24 31.1953C25.0305 31.1953 26.0371 31.1598 27.0312 31.1074C26.015 32.4786 24.979 33.7252 23.9473 34.8477C22.9161 33.7228 21.8821 32.474 20.8672 31.1016Z" fill="white"/>
</svg>
